<svg width="24" height="24" viewBox="0 0 24 24" fill="none" xmlns="http://www.w3.org/2000/svg">
<g clip-path="url(#clip0_4201_19022)">
<rect width="24" height="24" rx="12" fill="black" fill-opacity="0.2"/>
<path d="M12 24C18.6274 24 24 18.6274 24 12C24 5.37258 18.6274 0 12 0C5.37258 0 0 5.37258 0 12C0 18.6274 5.37258 24 12 24Z" fill="#3E73C4"/>
<path d="M15.0165 13.5932C15.0165 12.0002 14.0565 11.4542 12.1365 11.2262C10.7655 11.0439 10.4918 10.6802 10.4918 10.0427C10.4918 9.40519 10.9493 8.99569 11.8628 8.99569C12.6855 8.99569 13.143 9.26869 13.371 9.95194C13.3948 10.018 13.4382 10.0752 13.4955 10.1158C13.5527 10.1565 13.6211 10.1786 13.6913 10.1792H14.4225C14.4647 10.1803 14.5068 10.1729 14.546 10.1573C14.5853 10.1417 14.621 10.1182 14.6509 10.0884C14.6809 10.0586 14.7045 10.0231 14.7202 9.98386C14.736 9.94467 14.7437 9.90268 14.7428 9.86044V9.81544C14.6534 9.32111 14.4033 8.87014 14.0313 8.53257C13.6593 8.19501 13.1862 7.98975 12.6855 7.94869V6.85669C12.6855 6.67444 12.5483 6.53794 12.3203 6.49219H11.634C11.4518 6.49219 11.3145 6.62869 11.2688 6.85669V7.90369C9.89701 8.08519 9.02926 8.99569 9.02926 10.1342C9.02926 11.6357 9.94276 12.2274 11.8628 12.4554C13.143 12.6827 13.554 12.9564 13.554 13.6847C13.554 14.4122 12.9143 14.9132 12.0458 14.9132C10.857 14.9132 10.446 14.4129 10.3088 13.7297C10.2638 13.5482 10.1258 13.4567 9.98851 13.4567H9.21151C9.16934 13.4557 9.1274 13.4632 9.08822 13.4788C9.04904 13.4945 9.01344 13.5179 8.98358 13.5477C8.95371 13.5775 8.9302 13.6131 8.91446 13.6522C8.89872 13.6913 8.89109 13.7333 8.89201 13.7754V13.8204C9.07426 14.9589 9.80626 15.7779 11.3145 16.0059V17.0987C11.3145 17.2802 11.4518 17.4174 11.6798 17.4624H12.366C12.5483 17.4624 12.6855 17.3259 12.7313 17.0987V16.0052C14.103 15.7779 15.0165 14.8217 15.0165 13.5924V13.5932Z" fill="white"/>
<path d="M9.669 18.3727C6.1035 17.0977 4.275 13.1377 5.601 9.633C6.2865 7.7205 7.79475 6.26475 9.669 5.5815C9.852 5.49075 9.94275 5.35425 9.94275 5.12625V4.48875C9.94275 4.30725 9.852 4.17075 9.669 4.125C9.62325 4.125 9.53175 4.125 9.486 4.17C8.45732 4.49124 7.50235 5.0128 6.67607 5.70463C5.84979 6.39646 5.16852 7.24491 4.67148 8.20112C4.17445 9.15733 3.87148 10.2024 3.78001 11.2762C3.68854 12.35 3.81037 13.4312 4.1385 14.4578C4.9605 17.0078 6.92625 18.9653 9.486 19.7843C9.669 19.875 9.852 19.7842 9.897 19.602C9.94275 19.557 9.94275 19.5105 9.94275 19.4198V18.7822C9.94275 18.6457 9.80625 18.4642 9.669 18.3727ZM14.514 4.17075C14.331 4.07925 14.148 4.17075 14.103 4.35225C14.0573 4.398 14.0573 4.44375 14.0573 4.5345V5.172C14.0573 5.35425 14.1938 5.53575 14.331 5.62725C17.8965 6.90225 19.725 10.8623 18.399 14.367C17.7135 16.2795 16.2053 17.7353 14.331 18.4185C14.148 18.5093 14.0573 18.6458 14.0573 18.8738V19.5112C14.0573 19.6927 14.148 19.8293 14.331 19.875C14.3768 19.875 14.4683 19.875 14.514 19.83C15.5427 19.5088 16.4977 18.9872 17.3239 18.2954C18.1502 17.6035 18.8315 16.7551 19.3285 15.7989C19.8255 14.8427 20.1285 13.7976 20.22 12.7238C20.3115 11.65 20.1896 10.5688 19.8615 9.54225C19.0395 6.94725 17.028 4.98975 14.514 4.17075Z" fill="white"/>
</g>
<defs>
<clipPath id="clip0_4201_19022">
<rect width="24" height="24" rx="12" fill="white"/>
</clipPath>
</defs>
</svg>
